<svg xmlns="http://www.w3.org/2000/svg" enable-background="new 0 0 24 24" viewBox="0 0 24 24" id="add-people">
  <g id="_icons">
    <path d="M19.0381,16.5078h-0.583v-0.583c0-0.5527-0.4478-1-1-1s-1,0.4473-1,1v0.583h-0.5c-0.5522,0-1,0.4473-1,1s0.4478,1,1,1h0.5
			v0.5215c0,0.5527,0.4478,1,1,1s1-0.4473,1-1v-0.5215h0.583c0.5522,0,1-0.4473,1-1S19.5903,16.5078,19.0381,16.5078z"></path>
    <path d="M21.7798 14.0605c-.0581-.0781-.1279-.1572-.2559-.2979-.0312-.0361-.0654-.0693-.1016-.0996-.2808-.3008-.5947-.5605-.9224-.7676-1.8379-1.2109-4.3735-1.165-6.1597.1104-.1069.076-.1995.1511-.2921.2263-1.8251-.407-3.7506-.2633-5.5126.4133-1.6704.6328-2.9316 2.0205-3.3745 3.7158l-.0913.3564c-.1641.6562-.0356 1.3564.3521 1.9199.4126.5996 1.0752.9951 1.8223 1.0859C8.8149 20.9072 10.4155 21 12 21c.416 0 .8321-.019 1.2481-.0357.1755.2162.3629.4228.5693.607.0376.0381.1113.1133.2207.1885C15.0005 22.5596 16.2266 23 17.5 23c1.3379 0 2.6172-.4795 3.5894-1.3398C22.3037 20.623 23 19.1064 23 17.5c0-.8613-.2036-1.7158-.5918-2.4785C22.2163 14.6494 21.9937 14.3115 21.7798 14.0605zM7.4805 18.7373c-.1733-.0205-.3232-.1055-.4106-.2334-.0659-.0947-.0859-.1963-.061-.2949l.0889-.3457c.2783-1.0664 1.0811-1.9443 2.1509-2.3496C10.124 15.1777 11.0757 15 12 15c.1963 0 .3921.0078.5869.0234-.0807.1597-.149.3254-.2136.4925-.0087.0225-.0203.0435-.0287.066-.1001.2695-.1726.5489-.2294.8329-.0137.0682-.0253.1362-.0363.205C12.0323 16.9094 12 17.2022 12 17.5c0 .2963.0276.5824.071.8597.0138.0883.0368.1687.0548.2543.0272.1292.0468.2636.0831.386C10.6353 19.002 9.0396 18.9189 7.4805 18.7373zM19.7773 20.1514c-1.2188 1.0752-3.2607 1.0996-4.4966.04-.0244-.0215-.0503-.041-.0767-.0596-.001-.002-.0029-.0029-.0044-.0049-.2593-.2334-.4595-.4648-.6128-.709-.0082-.0125-.0164-.0251-.0251-.0376-.0005-.0007-.0007-.0017-.0013-.0024-.0029-.0039-.0063-.0088-.0093-.0137-.1543-.2314-.272-.4707-.3633-.751C14.0635 18.2754 14 17.9014 14 17.5c0-.8496.3018-1.6582.8525-2.2822.0298-.0332.0562-.0703.0938-.1006.0469-.0361.0903-.0771.1299-.1211.0962-.1084.2388-.2295.4243-.3613 1.1284-.8037 2.7222-.8457 3.9155-.0586.2183.1377.4189.3086.5967.5088.0278.0312.0581.0605.0903.0889l.1113.1299c.1528.1816.293.3955.4146.6299C20.8716 16.4111 21 16.9531 21 17.5 21 18.5205 20.5591 19.4834 19.7773 20.1514zM17 7c0-2.7568-2.2432-5-5-5S7 4.2432 7 7s2.2432 5 5 5S17 9.7568 17 7zM9 7c0-1.6543 1.3457-3 3-3s3 1.3457 3 3-1.3457 3-3 3S9 8.6543 9 7z"></path>
  </g>
</svg>
