<svg xmlns="http://www.w3.org/2000/svg" width="32" height="32" viewBox="0 0 8.467 8.467" id="pen">
  <path d="M23.986.998a1 1 0 0 0-.097.006 1 1 0 0 0-.6.287L12.377 12.203a1 1 0 0 0-.18.18l-10.79 10.79a1 1 0 0 0-.41.948V30A1 1 0 0 0 2 31.004h6.002a1 1 0 0 0 .016-.002 1.002 1.002 0 0 0 .097-.006 1 1 0 0 0 .002 0 1.002 1.002 0 0 0 .004 0 1 1 0 0 0 .375-.125 1.002 1.002 0 0 0 .07-.043 1 1 0 0 0 .014-.01 1.002 1.002 0 0 0 .014-.01 1 1 0 0 0 .117-.099l10.863-10.865a1 1 0 0 0 .262-.26l6.166-6.166.58.586-5.293 5.29a1 1 0 1 0 1.418 1.411l6.002-6a1 1 0 0 0 0-1.41l-1.293-1.293 3.293-3.291a1 1 0 0 0 0-1.418L29.418 6l1.291-1.291a1 1 0 0 0 0-1.418l-2-2a1 1 0 0 0-.82-.287 1 1 0 0 0-.598.287L26 2.584l-1.293-1.293a1 1 0 0 0-.72-.293zm.012 2.42 1.313 1.312 2.002 2 1.269 1.272-3.19 3.191a1 1 0 0 0-.2.202l-6.19 6.193L14.414 13l9.584-9.582zm4.002 0 .582.582-.582.584L27.416 4 28 3.418zM12.998 14.412l4.59 4.59-9.582 9.584-4.592-4.592 9.584-9.582zm-10.002 12 2.592 2.592H2.996v-2.592z" color="#000" font-family="sans-serif" font-weight="400" overflow="visible" style="line-height:normal;font-variant-ligatures:normal;font-variant-position:normal;font-variant-caps:normal;font-variant-numeric:normal;font-variant-alternates:normal;font-feature-settings:normal;text-indent:0;text-align:start;text-decoration-line:none;text-decoration-style:solid;text-decoration-color:#000;text-transform:none;text-orientation:mixed;shape-padding:0;isolation:auto;mix-blend-mode:normal" transform="scale(.26458)"></path>
</svg>
