<svg xmlns="http://www.w3.org/2000/svg" width="48" height="48" enable-background="new 0 0 48 48" viewBox="0 0 48 48" id="share-session">
  <path d="M11,35C4.935,35,0,30.065,0,24s4.935-11,11-11c4.189,0,7.958,2.331,9.835,6.083C21.597,20.584,22,22.286,22,24
		c0,1.714-0.403,3.416-1.168,4.922C18.958,32.669,15.189,35,11,35z M11,15c-4.963,0-9,4.038-9,9s4.037,9,9,9
		c3.428,0,6.511-1.907,8.046-4.978C19.68,26.773,20,25.421,20,24c0-1.421-0.32-2.773-0.951-4.018C17.511,16.907,14.428,15,11,15z"></path>
  <path d="M11,26c-0.844,0-1.683-0.275-2.362-0.774C7.615,24.489,7,23.281,7,22c0-2.206,1.794-4,4-4s4,1.794,4,4
		c0,1.281-0.615,2.489-1.646,3.231C12.683,25.725,11.844,26,11,26z M11,20c-1.103,0-2,0.897-2,2c0,0.649,0.297,1.235,0.814,1.608
		c0.693,0.51,1.687,0.504,2.362,0.006C12.703,23.235,13,22.649,13,22C13,20.897,12.103,20,11,20z"></path>
  <path d="M15 30H7c-.553 0-1-.448-1-1v-1c0-1.915 1.068-3.63 2.789-4.477.333-.166.733-.129 1.034.091.676.498 1.678.498 2.354 0 .3-.221.696-.255 1.03-.094.474.23.917.543 1.317.93C15.482 25.421 16 26.676 16 28v1C16 29.552 15.553 30 15 30zM8 28h6c0-.795-.313-1.551-.882-2.128-.106-.102-.223-.2-.346-.288-1.098.542-2.448.542-3.544 0C8.46 26.141 8 27.028 8 28zM37 22c-4.189 0-7.958-2.331-9.835-6.083C26.403 14.416 26 12.714 26 11c0-6.065 4.935-11 11-11s11 4.935 11 11S43.065 22 37 22zM37 2c-4.963 0-9 4.038-9 9 0 1.421.32 2.773.951 4.017C30.489 18.093 33.572 20 37 20c4.963 0 9-4.038 9-9S41.963 2 37 2z"></path>
  <path d="M37,13c-0.844,0-1.683-0.275-2.362-0.774C33.615,11.489,33,10.281,33,9c0-2.206,1.794-4,4-4s4,1.794,4,4
		c0,1.281-0.615,2.489-1.646,3.231C38.683,12.725,37.844,13,37,13z M37,7c-1.103,0-2,0.897-2,2c0,0.649,0.297,1.235,0.814,1.608
		c0.693,0.51,1.687,0.504,2.362,0.006C38.703,10.235,39,9.649,39,9C39,7.897,38.103,7,37,7z"></path>
  <path d="M41 17h-8c-.553 0-1-.448-1-1v-1c0-1.915 1.068-3.63 2.789-4.477.334-.165.733-.13 1.034.091.676.498 1.678.498 2.354 0 .3-.22.697-.256 1.03-.094.474.23.917.543 1.317.93C41.482 12.421 42 13.676 42 15v1C42 16.552 41.553 17 41 17zM34 15h6c0-.795-.313-1.551-.882-2.128-.106-.102-.223-.2-.346-.288-1.098.542-2.448.542-3.544 0C34.46 13.141 34 14.028 34 15zM37 48c-6.065 0-11-4.935-11-11 0-1.714.403-3.416 1.168-4.922C29.042 28.331 32.811 26 37 26c6.065 0 11 4.935 11 11S43.065 48 37 48zM37 28c-3.428 0-6.511 1.907-8.046 4.977C28.32 34.227 28 35.579 28 37c0 4.962 4.037 9 9 9s9-4.038 9-9S41.963 28 37 28z"></path>
  <path d="M37,39c-0.844,0-1.683-0.275-2.362-0.774C33.615,37.489,33,36.281,33,35c0-2.206,1.794-4,4-4s4,1.794,4,4
		c0,1.281-0.615,2.489-1.646,3.231C38.683,38.725,37.844,39,37,39z M37,33c-1.103,0-2,0.897-2,2c0,0.649,0.297,1.235,0.814,1.608
		c0.693,0.51,1.687,0.504,2.362,0.006C38.703,36.235,39,35.649,39,35C39,33.897,38.103,33,37,33z"></path>
  <path d="M41 43h-8c-.553 0-1-.448-1-1v-1c0-1.915 1.068-3.63 2.789-4.477.334-.166.733-.129 1.034.091.676.498 1.678.498 2.354 0 .3-.221.697-.256 1.03-.094.474.23.917.543 1.317.93C41.482 38.421 42 39.676 42 41v1C42 42.552 41.553 43 41 43zM34 41h6c0-.795-.313-1.551-.882-2.128-.106-.102-.223-.2-.346-.288-1.098.542-2.448.542-3.544 0C34.46 39.141 34 40.028 34 41zM19.941 20.53c-.367 0-.72-.202-.896-.553-.247-.494-.047-1.095.447-1.342l8.119-4.06c.494-.248 1.094-.047 1.342.447.247.494.047 1.095-.447 1.342l-8.119 4.06C20.244 20.496 20.092 20.53 19.941 20.53zM28.059 33.53c-.15 0-.303-.034-.446-.105l-8.119-4.06c-.494-.247-.694-.848-.447-1.342.248-.495.849-.695 1.342-.447l8.119 4.06c.494.247.694.848.447 1.342C28.778 33.328 28.426 33.53 28.059 33.53z"></path>
</svg>
